<svg xmlns="http://www.w3.org/2000/svg" viewBox="0 0 265.83 399.97"><title>cat-logo</title><style>.a{fill:#fff;}</style><path class="a" d="M1324.21,653.28a64.44,64.44,0,0,1,5.2,5.61,42.08,42.08,0,0,1,8.2,30.75c-1.2,10.06-6.73,17.14-16.43,20.38-10.39,3.47-19.75,1.28-27.68-6.29-6.33-6-9-14-10.78-22.26-3.33-15.16-3.46-30.27,1.65-45.11,8.73-25.38,31.4-34.22,54.86-21.16,17.93,10,28.63,25.77,33.68,45.33,7.3,28.22,3.74,55.77-6.25,82.75-7.88,21.3-19.31,40.83-30.55,60.44-6.59,11.49-13.25,22.91-16.61,35.91-8.81,34.1,16.86,55.61,42.54,57.56,6.67,0.51,13.4.08,21,.08-2.21-5.76-3.95-11.62-6.63-17-6.43-12.9-9.41-26.58-10-40.81-1-24.52,6.8-45.85,24.52-62.94,9.42-9.09,19.84-17.12,29.68-25.78,8.91-7.84,16.83-16.43,19.15-28.69-6-6.85-5.8-16.21.6-19.36a33,33,0,0,0-12.61-13c-7.35-4.49-15.2-8.21-22.33-13-22.46-15.13-34.49-35.85-31.49-63.49,0.78-7.18,4-14.09,6-21.16a27.87,27.87,0,0,0,.52-4.79c-1.23,1.17-3,2.11-3.6,3.54-2.23,5.15-4,10.48-6.1,15.7a49.15,49.15,0,0,1-3.54,7.42c-3.51,5.74-8.47,6.41-13.36,1.73a35,35,0,0,1-5.55-7c-2.73-4.47-5-9.23-7.67-13.73-2.43-4.05-5.2-7.9-7.78-11.86a49.61,49.61,0,0,1-4.3-7c-2.52-5.81-.69-10.59,5.31-12.6a73,73,0,0,1,13.91-2.69c6.32-.81,12.68-1.29,19-1.84,5.34-.47,6.07-1.88,3.27-6.56l-3.44-5.72c5,0.78,9.15,1.3,13.23,2.08,3.92,0.75,6.56-.56,7.93-4.32,3.81-10.49,8.42-20.59,15.34-29.45a30.56,30.56,0,0,1,6.48-6.15c3.59-2.51,6.9-1.95,9.57,1.5,8.79,11.36,17.6,22.71,26.11,34.28,5.07,6.9,3.78,11-3.78,15-6.36,3.37-13.22,4.33-20.25,4.77-2.72.17-5.43,0.51-8.14,0.77,0.63,5.86,7.87,9.41,13.12,6.65,10.42-5.48,21.49-8.58,33.19-7.2a101.1,101.1,0,0,1,23.18,5.5c6.32,2.35,11.5,2.11,17.46-.83a271.22,271.22,0,0,1,27.49-11.74c5.71-2.08,11.95-1.89,18.68-.87-7.2,7.51-10.75,16.41-14.7,25.15-4.58,10.14-5,20.47-2.87,31.15,0.89,4.41,1.61,8.85,2.32,13.28,1.81,11.28-.89,21.53-7,31.06-7.8,12.12-18.46,20.89-31.36,27.07-5.85,2.8-11.77,5.46-17.68,8.13-5.11,2.32-9.79,5.05-11.7,11.11,4,0.72,4.82,3.49,4.29,6.94-0.56,3.68.46,7.87-3.46,10.54-0.42.29-.27,1.94,0.08,2.75,2.75,6.27,4.66,13.18,8.61,18.59,19.25,26.36,22.47,54.94,12.89,85.43-3.25,10.34-7.41,20.4-11.24,30.55-3.24,8.6-5.83,17.3-4.68,26.66,0.77,6.25,3.07,8,9.31,7,3.82-.61,7.58-1.68,11.42-2.06,6.81-.67,10.64,2.53,11.65,9.27,0.81,5.4-1.52,8.3-7,8-5.6-.32-11.22-0.88-16.77-1.75-29.16-4.61-58.31-2.76-87.49-.26-19.69,1.69-39.44,2.64-59-1.12a65.37,65.37,0,0,1-24.55-9.76c-15.22-10.26-20.65-25-15.66-42.71,4.25-15.05,12.62-27.91,21.67-40.39,10.11-14,20.87-27.49,30.19-41.95,10.9-16.9,20.36-34.71,25.33-54.47,7-27.79,3.67-53.88-13.68-77.28-7.94-10.71-18.42-17.78-32-19.58-13.36-1.77-22.9,4-26.35,17.09-4.17,15.74-2.25,31,5.33,45.41,2.48,4.71,5.89,9.41,11.93,8.85,6.67-.62,10.89-5.23,13.23-11.34s1.47-12.3-.93-18.27c-0.78-1.95-1.84-3.79-2.77-5.68Z" transform="translate(-1280.36 -507.23)"/></svg>