<?xml version="1.0" encoding="utf-8"?>
<!-- Generator: Adobe Illustrator 19.2.0, SVG Export Plug-In . SVG Version: 6.00 Build 0)  -->
<svg version="1.1" id="Слой_1" xmlns="http://www.w3.org/2000/svg" xmlns:xlink="http://www.w3.org/1999/xlink" x="0px" y="0px"
	 viewBox="0 0 2834.6 1417.3" style="enable-background:new 0 0 2834.6 1417.3;" xml:space="preserve">
<style type="text/css">
	.st0{fill:#FFFFFF;stroke:#000000;stroke-miterlimit:10;}
</style>
<path class="st0" d="M1324.2,653.3c1.7,1.9,3.7,3.6,5.2,5.6c6.7,9.2,9.5,19.5,8.2,30.8c-1.2,10.1-6.7,17.1-16.4,20.4
	c-10.4,3.5-19.8,1.3-27.7-6.3c-6.3-6-9-14-10.8-22.3c-3.3-15.2-3.5-30.3,1.6-45.1c8.7-25.4,31.4-34.2,54.9-21.2
	c17.9,10,28.6,25.8,33.7,45.3c7.3,28.2,3.7,55.8-6.2,82.8c-7.9,21.3-19.3,40.8-30.5,60.4c-6.6,11.5-13.2,22.9-16.6,35.9
	c-8.8,34.1,16.9,55.6,42.5,57.6c6.7,0.5,13.4,0.1,21,0.1c-2.2-5.8-3.9-11.6-6.6-17c-6.4-12.9-9.4-26.6-10-40.8
	c-1-24.5,6.8-45.8,24.5-62.9c9.4-9.1,19.8-17.1,29.7-25.8c8.9-7.8,16.8-16.4,19.1-28.7c-6-6.8-5.8-16.2,0.6-19.4
	c-2.9-5.6-7.3-9.8-12.6-13c-7.3-4.5-15.2-8.2-22.3-13c-22.5-15.1-34.5-35.8-31.5-63.5c0.8-7.2,4-14.1,6-21.2
	c0.4-1.5,0.4-3.2,0.5-4.8c-1.2,1.2-3,2.1-3.6,3.5c-2.2,5.1-4,10.5-6.1,15.7c-1,2.5-2.1,5.1-3.5,7.4c-3.5,5.7-8.5,6.4-13.4,1.7
	c-2.1-2-4-4.5-5.6-7c-2.7-4.5-5-9.2-7.7-13.7c-2.4-4.1-5.2-7.9-7.8-11.9c-1.5-2.3-3.2-4.5-4.3-7c-2.5-5.8-0.7-10.6,5.3-12.6
	c4.4-1.5,9.2-2.1,13.9-2.7c6.3-0.8,12.7-1.3,19-1.8c5.3-0.5,6.1-1.9,3.3-6.6c-0.9-1.6-1.9-3.1-3.4-5.7c5,0.8,9.2,1.3,13.2,2.1
	c3.9,0.7,6.6-0.6,7.9-4.3c3.8-10.5,8.4-20.6,15.3-29.4c1.8-2.3,4.1-4.5,6.5-6.1c3.6-2.5,6.9-1.9,9.6,1.5
	c8.8,11.4,17.6,22.7,26.1,34.3c5.1,6.9,3.8,11-3.8,15c-6.4,3.4-13.2,4.3-20.3,4.8c-2.7,0.2-5.4,0.5-8.1,0.8
	c0.6,5.9,7.9,9.4,13.1,6.6c10.4-5.5,21.5-8.6,33.2-7.2c7.9,0.9,15.8,2.8,23.2,5.5c6.3,2.3,11.5,2.1,17.5-0.8
	c8.9-4.4,18.1-8.3,27.5-11.7c5.7-2.1,11.9-1.9,18.7-0.9c-7.2,7.5-10.8,16.4-14.7,25.1c-4.6,10.1-5,20.5-2.9,31.1
	c0.9,4.4,1.6,8.8,2.3,13.3c1.8,11.3-0.9,21.5-7,31.1c-7.8,12.1-18.5,20.9-31.4,27.1c-5.8,2.8-11.8,5.5-17.7,8.1
	c-5.1,2.3-9.8,5.1-11.7,11.1c4,0.7,4.8,3.5,4.3,6.9c-0.6,3.7,0.5,7.9-3.5,10.5c-0.4,0.3-0.3,1.9,0.1,2.8c2.8,6.3,4.7,13.2,8.6,18.6
	c19.2,26.4,22.5,54.9,12.9,85.4c-3.2,10.3-7.4,20.4-11.2,30.5c-3.2,8.6-5.8,17.3-4.7,26.7c0.8,6.2,3.1,8,9.3,7
	c3.8-0.6,7.6-1.7,11.4-2.1c6.8-0.7,10.6,2.5,11.7,9.3c0.8,5.4-1.5,8.3-7,8c-5.6-0.3-11.2-0.9-16.8-1.8c-29.2-4.6-58.3-2.8-87.5-0.3
	c-19.7,1.7-39.4,2.6-59-1.1c-8.8-1.7-17.1-4.7-24.6-9.8c-15.2-10.3-20.6-25-15.7-42.7c4.2-15.1,12.6-27.9,21.7-40.4
	c10.1-14,20.9-27.5,30.2-41.9c10.9-16.9,20.4-34.7,25.3-54.5c7-27.8,3.7-53.9-13.7-77.3c-7.9-10.7-18.4-17.8-32-19.6
	c-13.4-1.8-22.9,4-26.4,17.1c-4.2,15.7-2.2,31,5.3,45.4c2.5,4.7,5.9,9.4,11.9,8.9c6.7-0.6,10.9-5.2,13.2-11.3
	c2.4-6.2,1.5-12.3-0.9-18.3c-0.8-1.9-1.8-3.8-2.8-5.7C1323.8,653.8,1324,653.5,1324.2,653.3z"/>
</svg>
