<svg xmlns="http://www.w3.org/2000/svg" viewBox="0 0 1529.66 1037.21"><defs><style>.a{fill:#fff;}</style></defs><title>99px_ru_wallpaper_12523_kontur_koshki</title><path class="a" d="M1458.54,806.9c-18.61,8.87-37.13,17.92-55.83,26.58-95.45,44.2-192.84,83.43-293.53,114.2-65.53,20-132,36.32-199.66,47.09-69.3,11-139,16.15-209.17,11.27-47.18-3.28-93.57-11.12-138.4-26.75-30.53-10.65-59.45-24.51-85.26-44.2-20.35-15.52-37.83-33.7-49-57.11-8-16.81-11.7-34.5-7.43-52.93,5-21.48,18.64-36.48,37.74-46.65,23.46-12.49,48.93-15.78,75.05-15.26,41.81,0.84,81.71,11,120.68,25.38,13.83,5.1,27.5,10.66,41.51,15.64-3.45-2.16-6.87-4.36-10.34-6.48-45.24-27.48-92-51.82-142.21-69C507.21,716.5,471,708,433.17,708.32c-24.6.18-48.51,4.11-70.46,16-30.91,16.67-48.18,42.72-51.78,77.61-3.63,35.14,7,66.87,24.49,96.63,24.08,41,58.31,72,98.27,97,41.65,26.06,86.94,43.19,134.62,54.4,61.64,14.49,124.15,18.16,187.18,14.83,102.76-5.43,201.87-28.74,298.94-61.76,95.17-32.37,186.47-73.61,274.83-121.31,41.9-22.62,82.82-47.06,124.18-70.7,1.86-1.06,3.61-2.31,5.41-3.47Z" transform="translate(-16.78 -28.67)"/><path class="a" d="M618.87,54.9c16.16-2.07,32.29-4.34,48.48-6.18a1114.64,1114.64,0,0,1,185.62-6c56.7,3,112.75,10.48,168,23.61,93.69,22.27,181,59,259,116.11q109.66,80.2,174.43,199.75c36.54,67.18,60.28,138.78,74.64,213.72a981,981,0,0,1,15.1,119.39,138,138,0,0,0,2.28,18.77c-1.54-26.09-2.63-52.21-4.71-78.26A897.78,897.78,0,0,0,1527,551c-11.55-57.7-28.67-113.64-53.26-167.15-29.42-64-68.25-121.66-118.14-171.57-51.11-51.12-110.17-90.7-176.17-120-61.14-27.17-125.08-44.39-191.17-54.09C924,28.71,859.47,26.71,794.76,30.44a1150.1,1150.1,0,0,0-170.7,22.81c-1.77.37-3.51,0.87-5.27,1.3Z" transform="translate(-16.78 -28.67)"/><path class="a" d="M307,636.81c-16.34,5.11-32.69,10.39-48.58,16.73-10.88,4.33-21.88,9.26-28.89,19.71-0.43.64-2.61,1-2.89,0.65-0.67-.85-1.33-2.69-0.87-3.3,2.25-3,4.35-6.67,7.45-8.52,9.69-5.78,19.46-11.65,29.82-16,22.59-9.56,45.93-16.89,70.57-19a44.06,44.06,0,0,1,9.93.53c0.9,0.13,1.58,1.75,2.36,2.69-1,.68-1.88,1.67-3,2s-2.31-.29-3.46-0.21c-6.66.46-13.3,1-21,1.59,5.49,6.39,10.25,10.24,17.72,7.11a20,20,0,0,1,6.84-1.3c6-.23,11.92-0.31,17.86-0.11,0.92,0,1.78,1.86,2.67,2.86A22,22,0,0,1,360,644c-0.7.23-1.63-.39-2.44-0.33-7.46.53-14.92,1.13-22.37,1.71l-0.11,1.78a69.11,69.11,0,0,1,6.27,3.83c5,3.79,10.13,4.41,16.33,2.94,4.67-1.1,9.86-.28,14.79.15,1,0.09,1.84,2.2,2.75,3.39-1.37.43-2.74,1.21-4.1,1.21-3.73,0-7.46-.31-11.19-0.5l0,1.75c21.78,8,43.79,10.33,66.06,1.61,12.94-5.07,24.18-13.92,38-17.09a34.42,34.42,0,0,0,6.49-2.58c13.37-6.16,25.26-14.36,33.82-26.51,4.1-5.82,7.25-12.32,10.83-18.52l-1.89-1.55-15.45,11.86-3-2.31c4.68-7.3,11.39-11.16,18.59-14.45,1.56-.71,3.63-1.79,4.08-3.16,1.33-4,2-8.31,3.12-13.7-3.53,1.68-6,2.58-8.17,4a78.47,78.47,0,0,0-6.66,5.31l-3.55-2c2.71-5.55,7.53-8.52,12.69-10.12,5.83-1.8,7.29-5.41,7-10.7-0.07-1.24,0-2.49,0-4.53l-6.25,4.82-3.82-3.56c4.76-3.55,8.3-6.93,12.46-9.18C564,526,606.46,520.82,650.66,527.85a68.52,68.52,0,0,1,29.76,11.82L678,543c-6.4-2.69-12.22-5.66-18.37-7.57a110.49,110.49,0,0,0-19.48-4.19,195.83,195.83,0,0,0-83,7.74c-10.86,3.42-21.08,8.89-31.5,13.63-1.2.54-2.64,2.44-2.54,3.58a84.3,84.3,0,0,0,2.1,10.29c5-1.1,9.66-2.29,14.39-3.16,41-7.46,82.21-8.21,123.49-4.23,13.62,1.31,27,5.28,40.41,8.44,2.79,0.66,5.16,3.09,7.73,4.71l-0.39,1.83c-1.66.17-3.78,1.09-4.89,0.39-9.81-6.1-20.92-7.61-31.93-9.13-32.34-4.45-64.84-4.48-97.27-1.7-15.87,1.36-31.57,4.67-47.32,7.3-1.63.27-4,1.74-4.34,3.08-1.08,4.09-1.34,8.39-1.95,12.85,5.35-1,10.2-2.15,15.12-2.66,50.12-5.27,98.71,2.14,145.91,18.9,10.34,3.67,19.86,9.9,29.35,15.63,3.05,1.84,4.79,5.85,7.13,8.87l-1.79,2a30.93,30.93,0,0,1-4.72-2.91c-2.1-1.85-3.58-4.63-5.92-5.95-8-4.47-15.85-9.32-24.34-12.51-36.69-13.81-74.9-20.23-114-20.67-14.05-.16-28.13,2.37-42.21,3.58-5,.43-6.92,3.51-9.12,7.68A257.19,257.19,0,0,1,502,626c-2.29,3.28-3.87,6-3.88,10.14,0,16.8-8.43,28.13-24.21,33.27s-31.25,2.67-46.7-1.67a12.44,12.44,0,0,0-6.24-.43c-23.13,6.25-45.52,3.55-67.57-5a12.17,12.17,0,0,0-8-.3c-13.48,5.24-27,10.42-40.06,16.65-8.19,3.92-15.75,9.32-23.13,14.69-4.25,3.09-9.28,6.43-7.84,13.29a2.71,2.71,0,0,1-1.72,2c-1,0-2.73-.9-2.72-1.41,0-3-.52-6.66,1-8.87a37.56,37.56,0,0,1,10.29-10.67c10.34-6.64,21-12.79,31.87-18.59,6.8-3.63,14.14-6.26,21.24-9.33a6.06,6.06,0,0,0-3.48.13c-25,7.15-49.88,14.52-74.93,21.38-9.54,2.61-15.68,8.14-19.05,17.25-0.4,1.08-2,1.72-3,2.57-0.58-1.37-1.94-3-1.6-4.05a90,90,0,0,1,4.25-9.76c-1.47.33-2.91,0.57-4.31,1-11,3.18-22.06,6.42-33.12,9.56-4.47,1.27-9.05,3.44-13.51,3.28-16.95-.63-33.52-3.76-48.54-12.05-16.69-9.22-22.25-24-15.78-42a78.63,78.63,0,0,1,9.56-18.56c13.36-18.89,29.54-34.54,52.37-41.81-24.2-19.32-22.72-48.94-12.06-75.42-0.29,4.75-1,8.39-.64,12,0.91,10.56,1,21.4,3.6,31.55,5.16,19.93,20,32.48,38,39.89,24.12,9.94,49.12,17.75,73.75,26.44,4.11,1.45,8.29,2.7,12.43,4A2.06,2.06,0,0,1,296,626c-14-3.64-28.1-7.06-42-11-22.57-6.39-45.45-12-65.69-24.71-1.14-.71-3.92-0.06-5.21.91-10.21,7.74-20.61,15.29-30.22,23.73a76,76,0,0,0-20.75,28.43c-6.64,16.3-2.15,31.26,12.86,39.53,20.34,11.2,41.28,8.24,62.86,1.4-10.72-8.79-10.43-19.39-6.3-30.36,3.83-10.16,11-17.89,20.3-23.29,5.5-3.18,11.49-5.49,17.26-8.19L240,624c-2.2,2-4.42,3.9-6.59,5.89-5.28,4.84-10.79,9.46-15.74,14.61-11,11.5-11.69,22.51-2.23,35.4,0.83,1.12,3.37,1.83,4.84,1.5,10.4-2.32,20.74-4.91,31.07-7.52a26.19,26.19,0,0,0,5-2.1c11.19-5.52,22.15-11.55,33.59-16.49,10.64-4.59,21.77-8,33-12.09C316.84,634.29,316.68,633.76,307,636.81ZM460.52,667c18.89-1.28,32.06-14,35.39-33.56-4.12,3-7.89,5.67-11.63,8.4C474.91,648.63,464.21,652,453,654a40.23,40.23,0,0,0-9.59,3.44c-5.36,2.53-10.57,5.37-15.84,8.08l0.17,1.53C438.64,667.1,449.62,667.71,460.52,667ZM335,653.18c-3.39-4.1-6.49-6.31-11.7-4.32-13.95,5.33-28,10.3-42,15.47a38.18,38.18,0,0,0-4.31,2.22l0.32,0.89Z" transform="translate(-16.78 -28.67)"/><path class="a" d="M784.52,668.65c1.28-2.7,2.32-4.89,3.35-7.09,18.24-39,40.53-75.42,71-106.2,41.28-41.66,91.33-65.28,149.52-72.15,46.52-5.5,92.49-1.1,138.15,7.62,24,4.59,47.77,10.57,71.64,15.91a3.34,3.34,0,0,0,2.72-.32c-3.9-1.79-7.77-3.67-11.72-5.36-47.92-20.52-97-37.11-148.9-44.34-34.75-4.84-69.38-4.92-103.75,3.33-52.14,12.52-91.81,42.45-121.46,86.55-24.77,36.86-39.59,77.88-50.87,120.42A6.15,6.15,0,0,0,784.52,668.65Z" transform="translate(-16.78 -28.67)"/><path class="a" d="M188.84,399.88l-97-17.32c2.6-.77,5-1.53,7.42-2.19,21.06-5.69,37.81-17.7,51.09-34.8,14.83-19.09,25-40.83,35.66-62.34,12.34-25,25.55-49.44,42.4-71.74,28.56-37.8,65.24-65.31,108-85.18,27.45-12.76,56.13-21.86,85.46-29a10.48,10.48,0,0,0,5.32-2.55c-15.79,3.18-31.67,6-47.36,9.63-39.86,9.23-77.83,23.24-112.19,46-37.7,25-64.9,58.9-84.75,99.08-9.81,19.85-19,40-28.92,59.81-10,20-22,38.58-40.58,51.81C96,373.41,76.85,380.68,55.13,380.48c-8.28-.08-16.58,1-24.84,1.76a21.4,21.4,0,0,0-6.61,2.15c-6.7,3.07-8.72,8.13-5.18,14.67a56.44,56.44,0,0,0,9.05,12.45c14.65,15,31.77,27,49.44,38,28.51,17.8,57.42,35,86.16,52.39l1.12-1.6c-2.67-2.22-5.32-4.47-8-6.65s-5.79-4.49-8.67-6.76c-24.09-18.92-48.37-37.62-72.12-57-5.53-4.5-9.76-10.89-13.66-17-4.05-6.35-1.73-13.27,5.49-15.16,9.08-2.38,18.66-4.72,27.89-4.26,27.42,1.38,54.77,4.13,82.15,6.39,3.78,0.31,7.53.93,11.3,1.41Z" transform="translate(-16.78 -28.67)"/><path class="a" d="M523.06,263c2.75-17.86,5.44-35.83,2.95-54a39.32,39.32,0,0,0-3.3-11.4c-2.33-4.9-6.47-6.47-11.22-3.88a56.73,56.73,0,0,0-13.15,9.68c-16.12,16.35-28.24,35.72-40.39,55-5.67,9-11.1,18.18-16.61,27.3A9.65,9.65,0,0,0,439.7,291c0.91-1.37,1.85-2.73,2.73-4.12,12.85-20.25,25.75-40.49,42.45-57.87a94.08,94.08,0,0,1,17.62-14.49c8-5,15-2.14,17.3,7,1.92,7.48,2.54,15.36,3.16,23.11C523.45,250.7,523.06,256.88,523.06,263Z" transform="translate(-16.78 -28.67)"/><path class="a" d="M291.81,566.63c15.11,0,30.21-.06,45.32.08a8,8,0,0,1,4.87,1.84c5,4.56,9.86,9.37,14.73,14.12a18,18,0,0,0,3.27,2.94c-1.5-8.76-3.79-17.25-9.33-24.21a12.76,12.76,0,0,0-8.61-4.11c-17.26-.53-33.8,3.9-50.38,7.84Z" transform="translate(-16.78 -28.67)"/><path class="a" d="M437.88,642l14.85-32.36a65.7,65.7,0,0,0-20.5,15.47,7,7,0,0,1-6.2,2.61,125.64,125.64,0,0,0-22.88,1.71Z" transform="translate(-16.78 -28.67)"/><path class="a" d="M448.83,547.09c0-7.12.08-14.24,0-21.36-0.1-7.47,2-14,7.19-19.57,5.47-5.94,10.64-12.15,15.94-18.24l-0.77-1c-7.51,5.26-15.33,10.13-22.47,15.85-14,11.19-12.86,7.07-7.6,24.87,2,6.64,4.47,13.11,6.73,19.66Z" transform="translate(-16.78 -28.67)"/></svg>