<svg xmlns="http://www.w3.org/2000/svg" viewBox="0 0 420.79 292.32"><style>.a{fill: id="red";}</style><title>depositphotos_137685436-stock-illustration-laptop-of-vector-contour-black</title><path d="M419.91,228c-3.87-.86-7.84-1.42-11.61-2.62q-52.47-16.69-104.87-33.57c-2.62-.84-5.19-1.81-7.82-2.6a40.06,40.06,0,0,0-23-.31C219,203.52,164.82,216,110.09,225.89c-15.2,2.74-30.45,5.22-46,7.87,7.88,3.61,15.72,6.81,23.2,10.69,29,15.06,57.93,30.42,87,45.49,8.25,4.28,16.82,8,25.53,12-3.47-.8-6.84-1.37-10.09-2.37-10.77-3.3-20.31-9.21-30.2-14.4q-46.79-24.53-93.61-49c-1.42-.74-2.8-1.58-4.61-2.61L280.1,186.42c-3.8-13.44-7.74-26.31-11.06-39.34-10.21-40-20.17-80.15-30.26-120.22a41.7,41.7,0,0,0-2.21-6.74c-1.54-3.47-4.19-4.74-8.15-4.37-17.78,1.65-35.56,3.62-53.38,4.41-33.21,1.47-66.47,1.78-99.68,3.39-20.07,1-40.07,3.44-60.09,5.33-4.19.39-4.7,1.16-3.8,5.37q9.52,44.5,19.16,89c6.91,31.85,13.74,63.72,20.94,95.5,1.52,6.7,4.5,13.07,6.42,19.87-2.16-4.57-5-8.94-6.36-13.74-3.7-13.47-6.93-27.09-10.05-40.71Q26.09,116.41,10.84,48.61c-1.13-5-2.06-10-2.75-15.1-0.72-5.3.78-7.27,6-7.76,20-1.89,40-4.37,60.09-5.23,32.21-1.39,64.47-1.51,96.7-2.49,18.73-.57,37.45-1.7,56.16-2.73,8.16-.45,11,1.53,13.41,10.62C247.08,51,253.67,76.15,260,101.33c7,27.59,13.74,55.24,20.6,82.86,0.15,0.58.4,1.14,0.64,1.82,8.3-1.07,15.95,1.23,23.55,3.71q53.43,17.38,106.83,34.83c2.81,0.92,5.44,2.36,8.16,3.55Z" transform="translate(-7.91 -15.23)"/><path d="M159.46,260.42l-1.55,1.13,3.49,2.78-0.22.46c-2.09-1-4.23-1.9-6.25-3-8.75-4.84-17.47-9.75-26.2-14.63a2.61,2.61,0,0,0-1-.51c-3.55-.08-5-3.78-8.18-4.59,4.05,0.3,7.54,4.31,11.89,1.46L128.82,245l0.6,1.28,10,3.5c3.21,1.85,6.4,5.13,9.64,5.19,4.1,0.08,8.25-2.46,13-4.08-5.45-3.65-10.17-6.47-16.08-3.22a19.11,19.11,0,0,1-3.16,1.09l7.2-3.93c-7.1-4.3-7.09-4.27-14.73-1.94a26.79,26.79,0,0,1-3.86.6l8.33-3.35-4.64-2.57c7.69,4.08,14.79-.43,22.56-1.42l-2.12-2.41c6.26,3.87,12.17-.36,18.21-0.21l0.52-.89-2.36-.91c7.75,2.93,14.57-1.14,21.74-2l-4.8-2.61c7.14,3.58,14.19,1.87,21.78-.23l-4.21-3.19c6.71,5.13,13.16.82,20.44-.22l-4.43-2.51c6.94,3.52,13.38.08,20.52-1.9l-2.71-1.61c6.1,3.4,11.52-.37,18-1l-3.14-2.88c7.17,4.54,13.6-.82,21.32-1l-3.46-2.81c5.39,3,10.58,1,16.24-.62l-3.1-2.36c6,3.36,11.64.57,18.27-.89l-6.19-2.6c6.94,0.36,12.54,4.08,18.38,7.21,4,2.17,8,4.64,12.28,6.2,2.92,1.07,6.32.8,8.48,1-4.75,2.28-11.57,2.94-17.07,6.59a33.88,33.88,0,0,0-5.65.49c-11.93,3-23.78,6.36-35.74,9.23q-17.19,4.13-34.54,7.53c-11.09,2.19-22.27,3.94-33.39,6-0.71.13-1.31,0.87-2.61,1.8-5.36-2.26-11,1.25-17.94,1.8l4.81,3.39c-7.66-5.08-14.49-.18-22,1.45l2,2.75a1.39,1.39,0,0,1-.65.07c-2.11-2.15-4.35-2.2-7.06-1a74.62,74.62,0,0,1-8.17,2.65l10.29-4.76c-5.22-4.59-12.23-4.2-19.79,1.1C153.08,258.22,155.24,261.93,159.46,260.42ZM322,215.8l-8.73,3.64c4.56,3.67,7.77,3.54,16.79-.73l-8.14-2.85c-3.62-1.87-6.49-5.49-11.19-4.8-0.16-.72-0.08-1.74-0.53-2.1-5.36-4.28-10.39-.51-16.1.43,3.68,2.64,6.93,3.85,10.9,2.44,1.81-.65,3.88-0.58,5.83-0.84l-8.39,2.52c4.91,3.89,9.72,6.11,15.61,3.25A17.84,17.84,0,0,1,322,215.8Zm-41.33,10.71c-6.57-5.75-12.62-5.93-22.14-1C265.48,233,273,228.08,280.69,226.51ZM214.25,240.7c-7.78-7.58-15.77-3-24.06-2.61C197.84,245.71,205.85,241.32,214.25,240.7Zm82.55-18.52c-8.27-5.21-12.67-5.45-21-1.46C282,228.15,289.21,224.66,296.8,222.18Zm-120,24.44c-7.52-5.21-13.4-5.51-20.31-1.38C162.57,252.12,169.55,249,176.78,246.62Zm-4.41-5.39c6.91,7.52,14.53,3.33,22.16,2.38C187.68,236.78,180.12,239.75,172.37,241.23Zm53.51-8.56c7.11,7.38,14.29,2.59,21.69,1.6C240.51,226.61,233.3,232.1,225.88,232.67Zm-9.7-5.13c7.15,6.8,13.95,1.85,21.12,1.13C230.28,221.8,223.48,226.72,216.17,227.54Zm47,3.27c-7.31-5.26-12-5.52-18.92-1.53C249.78,236.13,256.26,232.05,263.15,230.81Zm-96.93,10.1c-7.08-6.58-13.82-1.38-20.75-.87C152.15,246.65,158.87,242.49,166.22,240.91Zm19.35,10.19c-6.44-5.78-12.62-1.37-19,.25,2.14,1.56,4.57,3.55,6.75,3.3C177.41,254.17,181.36,252.4,185.57,251.1Zm24.78-15.73c6.07,6.82,12.63,3.64,19.12,2.41C223.7,231.5,217.12,234.41,210.35,235.38Zm57.58-14.79c-6.38-5.16-12.53-2-19.18-.32C255,224.9,257.15,224.9,267.93,220.59Zm-34.83,3.1c7.19,4.66,11.65,4.78,18.58.89C246,218.28,239.82,222.73,233.1,223.7Zm31.12-7.41c7.28,5.65,13.46,1.77,20.22.28C277.46,210.44,271.25,215.88,264.22,216.28ZM307.57,219c-6.32-5.18-9.95-5.66-17-2.14C296,220.13,301.31,223.27,307.57,219Zm-127,14.73c5.36,3.56,15.24,3.47,22.05.31C195.39,229,188.44,234.11,180.58,233.76Zm105.16-6.93-0.39,1c1.45,0.68,3,2.14,4.32,1.92,4.79-.84,9.49-2.23,14.22-3.42L304,225c-2.13-.46-4.36-1.56-6.36-1.25C293.58,224.34,289.68,225.75,285.73,226.83Zm-122.57,9.63c6.75,6.45,13.12,1.49,20.2,1.46C176.47,232.22,170.13,236.4,163.16,236.46Zm56.11-4.12c-6.23-6.5-12-2.06-18.33-1.61C207.1,236.22,212.87,232.63,219.27,232.35ZM202,247.2c-6.26-4.55-12.26-.19-19.32-0.34C189.77,253.2,195.87,247.43,202,247.2Zm84-16.85c-5.93-4.68-11.18.47-16.8,1C275.06,236,280.36,230.94,286,230.35Zm-16.23,4.06c-5.73-4.77-11.06.32-16.58,0.71C258.9,239.69,264.22,234.5,269.76,234.41ZM220,243.91c-6.09-3.42-11.9.12-17.86,0.59C208.24,248.73,214.07,244.34,220,243.91Zm61.15-31.41c6.94,3.84,7.76,3.86,15.43.67C291.81,208,286.77,211.47,281.18,212.5Zm-44.64,26.31c5.85,3.55,11.15-.27,16.66-1.25C247.35,234,242.07,238.11,236.53,238.81Zm-15.88,2.93c5.35,3.66,10.39-.12,15.57-0.57C230.88,237.35,225.84,241.17,220.66,241.74Zm81.55-19.34c4.23,5.5,8.53,1.51,13.19,1C310.95,218.41,306.7,221,302.21,222.39Z" transform="translate(-7.91 -15.23)"/><path d="M419.83,228.1a76.92,76.92,0,0,1,8.61,5.54c0.59,0.49.14,3.65-.75,4.29a36.54,36.54,0,0,1-9.14,4.91c-20.79,7.1-41.59,14.2-62.51,20.91q-64.57,20.71-130.48,36.67a13.68,13.68,0,0,1-6,.43c6.51-1.95,13-3.88,19.53-5.85q89.6-27.15,179.18-54.35a42.26,42.26,0,0,0,7.49-3.35c2-1.07,2.19-2.52.25-4.07-2.09-1.67-4.08-3.48-6.12-5.22Z" transform="translate(-7.91 -15.23)"/><path d="M217.19,302c-10.23,5.51-21.23,7.45-32.09,3.49a308.84,308.84,0,0,1-35.5-15.76c-27.39-14.13-54.49-28.81-81.7-43.29a6.68,6.68,0,0,1-2.87-2.6c1.37,0.56,2.78,1,4.09,1.68Q106,264.13,143,282.8c9.46,4.79,19,9.52,28.36,14.44C186,304.91,201.06,307.91,217.19,302Z" transform="translate(-7.91 -15.23)"/><path d="M213,298.61c66.13-21,133.61-37.71,199-61.48-7,2.77-13.78,6-20.9,8.24-34.11,10.86-68.22,21.73-102.5,32.06-24.35,7.34-49,13.83-73.46,20.69C214.37,298.33,213.66,298.46,213,298.61Z" transform="translate(-7.91 -15.23)"/><path d="M165.95,265.1c8.67-2.21,17.27-4.73,26-6.56,53.27-11.18,106.05-24.34,158.46-39a3.62,3.62,0,0,1,1.83-.11C291.27,238.92,228.75,252.35,165.95,265.1Z" transform="translate(-7.91 -15.23)"/><path d="M26.84,37.6L226.18,26.86l0.08,1.43L26.91,38.92Z" transform="translate(-7.91 -15.23)"/><path d="M257.79,174.34c-18,4.43-36.05,8.94-54.12,13.26-28.23,6.75-57.07,9.64-85.75,13.61-15.67,2.17-31.18,5.56-46.76,8.4l-2.07.39-0.22-1.07c11.44-2.37,22.82-5.2,34.35-7,23.68-3.69,47.6-6,71.13-10.4,27.21-5.08,54.11-11.8,81.15-17.8,0.7-.16,1.41-0.26,2.12-0.39Z" transform="translate(-7.91 -15.23)"/><path d="M293,199.59C233.6,216,173.12,227.42,112.84,239.93c6-1.69,11.88-3.7,17.94-5,40.59-8.85,81.21-17.51,121.81-26.31,12.55-2.72,25.05-5.71,37.58-8.55C291.09,199.83,292,199.74,293,199.59Z" transform="translate(-7.91 -15.23)"/><path d="M58.23,201.26c-2-8.42-4.21-16.78-5.86-25.26-6.1-31.36-11.86-62.79-18-94.13-2.55-12.95-5.84-25.75-8.64-38.65C41.73,94.79,47.25,148.59,58.23,201.26Z" transform="translate(-7.91 -15.23)"/><path d="M265.15,168.51l-31-133.64,1.41-.33,31,133.77Z" transform="translate(-7.91 -15.23)"/><path d="M330.73,259a401.78,401.78,0,0,0-55.57,17.72,11.19,11.19,0,0,1-7.25.39q-19.15-7-37.94-15.07a8.57,8.57,0,0,1,1.85.25c11.14,4.06,22.32,8,33.36,12.32a14.29,14.29,0,0,0,11.18,0c16.15-6.4,32.55-12,49.68-15.23a35,35,0,0,1,4.81-.24Z" transform="translate(-7.91 -15.23)"/><path d="M225.89,258.7c18.55-8,38.67-10.68,57.92-16.53l0.37,1.36Z" transform="translate(-7.91 -15.23)"/><path d="M360.86,216.34c-20.27-4-39.83-9.93-57.34-18.88a31.38,31.38,0,0,1,5.26,1c16.25,5.51,32.47,11.11,48.7,16.69Z" transform="translate(-7.91 -15.23)"/><path d="M104.19,247.05c16.63,3.88,30.55,14.84,46,22.56l-0.43.89Z" transform="translate(-7.91 -15.23)"/><path d="M330.84,259.1c-1.13-.87-2.12-2.07-3.4-2.54-11.44-4.28-22.94-8.44-34.41-12.64-1.27-.47-2.51-1-4.29-1.77,7.26,0.22,38.91,12.12,43.74,16.3l-1.76.54Z" transform="translate(-7.91 -15.23)"/></svg>